PathFileType	4	(X/Y/Z)	AB03\squats_1.trc
DataRate	CameraRate	NumFrames	NumMarkers	Units	OrigDataRate	OrigDataStartFrame	OrigNumFrames
200.000000	200.000000	4	35	mm	200.000000	115	309
Frame#	Time	C7			LSHO			STRN			LASI			RASI			LPSI			RPSI			LGTR			RGTR			LTHC			LTHL			LTHR			LKNE			LMKNE			LSHC			LSHL			LSHR			LANK			LMANK			LMT1			LMT5			LCAL			RTHC			RTHL			RTHR			RKNE			RMKNE			RSHC			RSHL			RSHR			RANK			RMANK			RMT1			RMT5			RCAL			
		X1	Y1	Z1	X2	Y2	Z2	X3	Y3	Z3	X4	Y4	Z4	X5	Y5	Z5	X6	Y6	Z6	X7	Y7	Z7	X8	Y8	Z8	X9	Y9	Z9	X10	Y10	Z10	X11	Y11	Z11	X12	Y12	Z12	X13	Y13	Z13	X14	Y14	Z14	X15	Y15	Z15	X16	Y16	Z16	X17	Y17	Z17	X18	Y18	Z18	X19	Y19	Z19	X20	Y20	Z20	X21	Y21	Z21	X22	Y22	Z22	X23	Y23	Z23	X24	Y24	Z24	X25	Y25	Z25	X26	Y26	Z26	X27	Y27	Z27	X28	Y28	Z28	X29	Y29	Z29	X30	Y30	Z30	X31	Y31	Z31	X32	Y32	Z32	X33	Y33	Z33	X34	Y34	Z34	X35	Y35	Z35	

116	25.065	-2122.722652427755	1183.010769260059	2474.566757712277	-2057.747103462167	1099.952631992008	2350.136417459088	-2087.673361337541	994.2989851334759	2492.433639359722	-2380.455016474207	799.568000202828	2332.12011844075	-2394.8197456601	788.9629578662499	2653.671271446074	-2550.78565947095	988.703856892112	2433.969208916893	-2552.712666022091	987.8849779847807	2537.158227474243	-2471.101990567751	843.2419612547901	2257.487593608259	-2475.178479221263	841.6028248736779	2723.70223092666	-2422.756581011485	760.2585050905584	2227.905285816294	-2302.676660170095	736.9215820009407	2348.607256226727	-2503.527161234974	610.7864371252791	2248.993880753914	-2222.019343338737	511.2873147022249	2198.890876741013	-2228.602491295253	462.2173045004611	2358.16311790118	-2307.521164559285	302.2234443262645	2147.406564230029	-2232.750999963559	257.9902977163436	2204.826376398546	-2366.298258448479	252.0952611994921	2221.203365752197	-2329.696407704623	121.0492327759822	2143.349511447965	-2296.503940943722	110.5767681348819	2240.089056491444	-2192.931772554376	58.41999713273323	2209.92197969236	-2219.569024464293	55.75294421485512	2103.950460404945	-2406.3802780177	70.04377131829818	2199.462758443812	-2481.153652582609	557.2409520626629	2676.666627392955	-2428.168641860748	708.6749891137359	2760.324539587781	-2303.59484917543	738.4610193378842	2622.827243664934	-2219.831752676925	515.2207165954321	2765.267206854954	-2193.570008232335	487.5120099557059	2610.003134863839	-2356.626849608474	224.4368602709187	2724.384149021358	-2282.950291592599	312.0384756819986	2799.492449735896	-2228.311581277451	259.5304335175504	2738.870013937804	-2325.612185332867	116.4129428808654	2794.340066450737	-2304.666029458058	116.4568116517887	2701.741853490226	-2179.147693342739	50.14109570756639	2707.925428951847	-2205.713009857944	56.21805076936425	2823.717876627009	-2401.250162172054	68.66106657141388	2741.151782757726	
117	25.07	-2122.683136298253	1180.867998390717	2474.537521561707	-2057.208464365035	1097.800753871489	2350.489426506344	-2087.720541954934	992.0646877617469	2492.568558840867	-2380.956485127113	798.6288516426227	2332.147453634019	-2395.146198832844	787.7363130160541	2653.595763498418	-2551.196112297343	987.2961503675992	2433.812868757584	-2553.183845575865	986.5549842617788	2536.977068325005	-2471.668132383263	842.0523086391909	2257.569268653128	-2475.817213303781	840.5922036940977	2723.643809753695	-2423.23885032467	759.2738382882418	2227.786239777103	-2303.067649927239	736.3653524137125	2348.499399996263	-2503.625270864572	609.5739045400301	2248.995317845153	-2221.736180214493	511.1460956635668	2198.777126534026	-2228.241553752906	462.0273661037094	2358.030517530015	-2307.366130457538	302.1535265056135	2147.394159059653	-2232.619860113168	257.8895807772186	2204.787723526987	-2366.183461883913	252.0888837740824	2221.214300439034	-2329.678566140012	121.0326570689393	2143.366951956732	-2296.472206602215	110.572572350183	2240.109734778156	-2192.933013112902	58.41556635022987	2209.919098268103	-2219.575273301944	55.75583691712082	2103.948370448475	-2406.376156398471	70.03068522405711	2199.48187402221	-2481.181135546975	556.2761719894507	2676.825452208212	-2428.594247394771	707.8381150179717	2760.424231142701	-2304.079594275364	737.9432687065781	2622.924779434855	-2219.713978558541	515.1305802804488	2765.554835289878	-2193.336964234403	487.447842858566	2610.258438663837	-2356.597258241385	224.4568732343945	2724.473644905522	-2282.909044427855	311.9626466073013	2799.632787632735	-2228.266378955886	259.4912327589326	2739.017210050246	-2325.62177166929	116.3867361311834	2794.383383214476	-2304.667176401646	116.4740617577634	2701.808937686358	-2179.159852478205	50.18742228511224	2707.936600073123	-2205.747641313733	56.20772528482139	2823.741312289584	-2401.264435689979	68.65147648070152	2741.164628312827	
118	25.075	-2122.658949930048	1178.820850662054	2474.500324817699	-2056.693413236369	1095.750688426714	2350.8331362786	-2087.767588324803	989.9318996278982	2492.697415719463	-2381.450778741417	797.7271516395095	2332.167522456126	-2395.465683002398	786.5712375233525	2653.519452218763	-2551.600039808854	985.9515539207495	2433.662181680796	-2553.646233666512	985.2882123309638	2536.802686571283	-2472.233036364675	840.908587315103	2257.649112029001	-2476.44275753818	839.6266407250588	2723.592932944245	-2423.720674935443	758.326794945477	2227.670408082242	-2303.453191365539	735.8404063815666	2348.385321440222	-2503.732568754272	608.4063939799465	2249.007696971728	-2221.479041934819	511.0145502930426	2198.66503124323	-2227.908654957529	461.8542564145795	2357.902192156397	-2307.22402572085	302.087761093469	2147.381968368337	-2232.500249045066	257.7971363839341	2204.751654698651	-2366.080557196449	252.0835493652249	2221.225089475249	-2329.661408062529	121.0170326217951	2143.387259654119	-2296.443017492596	110.570013036009	2240.131937338974	-2192.934526715787	58.41173907610094	2209.917591756463	-2219.581149091665	55.75935594468795	2103.947514457439	-2406.372648645649	70.01750278953735	2199.502527225849	-2481.213823032446	555.357502272804	2676.983826219432	-2429.015907950366	707.0416110759066	2760.531135860764	-2304.551299618263	737.4546430792102	2623.040462440878	-2219.618346190469	515.0455197397195	2765.85031714438	-2193.122851141424	487.3930326766355	2610.523764313619	-2356.575364526847	224.4798281783332	2724.570775472896	-2282.878568208584	311.8894458900454	2799.777482527254	-2228.228845644352	259.457605084933	2739.168026060737	-2325.631605486514	116.3585485749557	2794.427269686085	-2304.669853517392	116.495250617732	2701.875075599599	-2179.171863373836	50.23617990385495	2707.948009038344	-2205.783241601451	56.19621297263627	2823.765784806361	-2401.27716068515	68.6413861645397	2741.178626478256	
119	25.08	-2122.64995812004	1176.870950926964	2474.456215656956	-2056.204056706147	1093.805128388386	2351.166916791243	-2087.814738811172	987.9022280684884	2492.820375840384	-2381.936034437615	796.8631939668114	2332.181799173521	-2395.777400139736	785.4684087920957	2653.443215558033	-2551.996160663507	984.6709921334617	2433.517639118576	-2554.098365069762	984.0851903198139	2536.635765626705	-2472.793452390576	839.8123372775624	2257.727920854597	-2477.053508954571	838.7074865665693	2723.549115586136	-2424.19936123913	757.4188131397848	2227.559302076641	-2303.832142093687	735.3461060515876	2348.267481087923	-2503.847358596816	607.2855880268481	2249.029636511396	-2221.246629519306	510.8926829317818	2198.554746371459	-2227.602030898634	461.6975095157077	2357.778606622463	-2307.094588566298	302.026224941633	2147.369854212419	-2232.391761699203	257.7127471642287	2204.718032517594	-2365.988879327468	252.0793513493676	2221.235714250219	-2329.644913690267	121.0022949785997	2143.41013347006	-2296.41669898605	110.5685380721058	2240.155058121778	-2192.936279977662	58.40859894646788	2209.917485715841	-2219.586569550785	55.76334061916523	2103.947833513619	-2406.369725095089	70.00431923825256	2199.524462272985	-2481.251477343489	554.4858615672074	2677.141527929256	-2429.432269711469	706.2862116748664	2760.644633583412	-2305.009215540647	736.9954631144402	2623.173133942948	-2219.543695347586	514.9654884000377	2766.151837605086	-2192.927538524188	487.3472305223259	2610.79746244237	-2356.560522135615	224.5054216098678	2724.674817844861	-2282.857858993045	311.8193880628809	2799.926107944789	-2228.198385819901	259.4292051965007	2739.321813837534	-2325.641547321105	116.328302289066	2794.471565639713	-2304.673910626708	116.5202651681278	2701.939836716456	-2179.183677367456	50.2870564572383	2707.959631548355	-2205.819517057694	56.18345732525127	2823.791263312869	-2401.288353644033	68.63088365101798	2741.193749190165	
